<?xml version="1.0" encoding="UTF-8"?>
<svg width="115px" height="60px" viewBox="0 0 115 60" version="1.1" xmlns="http://www.w3.org/2000/svg" xmlns:xlink="http://www.w3.org/1999/xlink">
    <!-- Generator: Sketch 52.6 (67491) - http://www.bohemiancoding.com/sketch -->
    <title>Text Copy</title>
    <desc>Created with Sketch.</desc>
    <g id="Page-1" stroke="none" stroke-width="1" fill="none" fill-rule="evenodd">
        <g id="Logo" transform="translate(-34.000000, -128.000000)" fill="#FFFFFF">
            <g id="Text-Copy" transform="translate(34.827160, 128.335329)">
                <path d="M9.97839124,12.689874 C9.97839124,13.6082943 10.2456296,14.4293514 10.7804027,15.1527485 C11.3148795,15.8761455 12.0229723,16.5478925 12.9052738,17.1668022 C13.7869828,17.7860086 14.7869047,18.374047 15.9050396,18.9303236 C17.022582,19.486897 18.1685666,20.0609839 19.3421046,20.6522875 C20.5156426,21.243888 21.6613309,21.8767491 22.7794658,22.5517613 C23.8970082,23.2267736 24.8969301,23.9884628 25.7792316,24.837126 C26.6609405,25.6857891 27.3693296,26.6460638 27.9041027,27.7173563 C28.4385795,28.7889457 28.7061141,30.0131104 28.7061141,31.3907409 C28.7061141,32.6431053 28.5046484,33.7945444 28.1020132,34.8450582 C27.6990817,35.8958688 27.1468285,36.8383331 26.4458462,37.6730448 C25.7442713,38.5080534 24.9147065,39.2456987 23.9565591,39.8853871 C22.9981154,40.5250755 21.9635295,41.0543397 20.8525051,41.4716955 C19.7411845,41.8890514 18.5747571,42.2054819 17.3529265,42.421284 C16.1305035,42.6370861 14.9015624,42.7448387 13.6655108,42.7448387 C11.92935,42.7448387 10.2420744,42.5325987 8.60338749,42.1081187 C6.96470063,41.6836387 5.50644412,41.0439503 4.22891424,40.188163 C2.95079182,39.3323757 1.92687177,38.2610832 1.15626527,36.9739886 C0.385362503,35.6871909 -8.8881949e-05,34.1804353 -8.8881949e-05,32.4552061 C-8.8881949e-05,31.5649855 0.142122236,30.7822206 0.427137019,30.1072084 C0.711559255,29.4321961 1.06560568,28.8687954 1.48957258,28.4164125 C1.91294693,27.9646234 2.37483679,27.6235552 2.87464962,27.3938017 C3.37475872,27.164345 3.83990758,27.0494682 4.27039249,27.0494682 C4.71480223,27.0494682 5.0860325,27.1714691 5.38497213,27.4145804 C5.6833192,27.6582853 5.83293715,28.0376458 5.83293715,28.5523649 C5.83293715,28.7889457 5.8047912,29.0394779 5.74968439,29.3036648 C5.69398503,29.5678516 5.63502668,29.8566761 5.57251304,30.1698415 C5.5099994,30.4827099 5.45074477,30.8273402 5.39534169,31.2028417 C5.33964233,31.5786401 5.31208893,31.9891686 5.31208893,32.4344274 C5.31208893,33.4083567 5.53399753,34.2501925 5.97870354,34.9596381 C6.42311329,35.6693805 7.01299316,36.2538568 7.74952824,36.713067 C8.4851745,37.1722772 9.33251575,37.5133454 10.2909594,37.7356779 C11.2491068,37.9583073 12.2419182,38.069622 13.2696898,38.069622 C14.478188,38.069622 15.68639,37.9235771 16.894592,37.6311905 C18.1027939,37.3391008 19.1859686,36.9080903 20.1444123,36.3372686 C21.1025597,35.7667438 21.8799805,35.0676876 22.4775634,34.2398031 C23.0742576,33.4122156 23.3731972,32.4623303 23.3731972,31.3907409 C23.3731972,30.4028602 23.1056625,29.5194669 22.5711858,28.7399672 C22.0364127,27.9607644 21.3280236,27.2409295 20.4463146,26.5798687 C19.5640132,25.9191047 18.5611285,25.2963362 17.4361793,24.7118599 C16.3112301,24.1273836 15.1655418,23.53608 13.9988181,22.9376522 C12.8323906,22.3398182 11.6867023,21.7099255 10.5617531,21.0488647 C9.4368039,20.3883975 8.4333267,19.6608448 7.55161777,18.8676905 C6.66931629,18.0748331 5.96092715,17.1875809 5.42674664,16.2068243 C4.89197358,15.2257709 4.62473519,14.109062 4.62473519,12.8566976 C4.62473519,11.6880418 4.90589842,10.5368996 5.46822488,9.40267715 C6.03084762,8.26845473 6.87759632,7.25296797 8.00965608,6.35532636 C9.14141956,5.45798159 10.5543463,4.73102249 12.2490288,4.17444907 C13.9431187,3.61787565 15.9290377,3.33944052 18.2067858,3.33944052 C19.6511175,3.33944052 21.0640442,3.55553943 22.4461585,3.98654989 C23.8279765,4.41785718 25.0604729,5.02993952 26.1439438,5.82309375 C27.2271185,6.61624798 28.0984579,7.56286805 28.7582582,8.66176662 C29.417466,9.76096202 29.7478106,10.9782994 29.7478106,12.3140756 C29.7478106,13.1072298 29.6124137,13.9211628 29.3413238,14.7561714 C29.0705301,15.5908831 28.6364899,16.4606218 28.0394995,17.3650907 C27.4561377,18.2416567 26.820928,18.8923282 26.133278,19.3165113 C25.4459243,19.7412882 24.8240469,19.9532313 24.268831,19.9532313 C23.8522709,19.9532313 23.511853,19.8315273 23.2481699,19.5878223 C22.9841905,19.3447111 22.852349,18.9793021 22.852349,18.492189 C22.852349,18.1303421 22.9356017,17.7025968 23.1024035,17.2086565 C23.2689091,16.715013 23.5533313,16.1474565 23.9565591,15.5074713 C24.3313446,14.8953889 24.6089526,14.321302 24.7896792,13.7855073 C24.9701096,13.2503063 25.0604729,12.752507 25.0604729,12.2932969 C25.0604729,11.5835544 24.8693767,10.9610827 24.4877768,10.4252881 C24.1055845,9.88979021 23.577922,9.44126624 22.9044931,9.07912247 C22.2304716,8.71727554 21.4219422,8.44596455 20.4777196,8.2651895 C19.5329045,8.08441445 18.4986149,7.99387851 17.3736657,7.99387851 C16.1236892,7.99387851 15.0369592,8.13665815 14.1134758,8.42162374 C13.1896961,8.70688617 12.4187933,9.07585724 11.8010637,9.52794328 C11.1830379,9.98002931 10.7247033,10.4846559 10.4263563,11.0409325 C10.1274166,11.5975059 9.97839124,12.147252 9.97839124,12.689874" id="Fill-1"></path>
                <path d="M33.1999367,23.3760837 C33.8247768,22.2629368 34.4878361,21.0105724 35.189411,19.6192873 C35.8903933,18.2280021 36.5537489,16.7945659 37.1788853,15.3195721 C37.8037254,13.845172 38.3453127,12.3737403 38.8036473,10.905277 C39.2619819,9.43740733 39.5535147,8.07016618 39.6785419,6.80414717 C39.6785419,6.40044591 39.6681724,6.05611249 39.6474332,5.77085006 C39.6263979,5.48588447 39.5603289,5.34310484 39.4495228,5.34310484 C39.046295,5.34310484 38.6125511,5.60402645 38.1474022,6.12586969 C37.6819571,6.64771293 37.2168082,7.35389329 36.7516594,8.24411392 C36.2862142,9.13463139 35.8418045,10.1717874 35.4184301,11.3540978 C34.9947595,12.536705 34.6164187,13.7961935 34.2831114,15.1319697 C33.9498041,16.4677459 33.6858247,17.8418144 33.4914695,19.2538783 C33.296818,20.666239 33.1999367,22.0403074 33.1999367,23.3760837 M33.1791976,40.0732863 C32.4290339,40.0732863 31.7313106,39.7429043 31.0854351,39.0818435 C30.4398559,38.4213764 29.8772332,37.5341241 29.3981594,36.4206804 C28.9190857,35.3075336 28.5440039,34.0174706 28.2732103,32.5490073 C28.0024166,31.0811377 27.8670197,29.5405424 27.8670197,27.9260343 C27.8670197,26.6876213 27.9570868,25.3414557 28.1378134,23.8875375 C28.3179475,22.4336193 28.5822232,20.9339879 28.9294553,19.3895338 C29.2763912,17.8450796 29.6896922,16.2937982 30.1690622,14.7353926 C30.6481359,13.1772839 31.1897233,11.6812145 31.7938242,10.2477782 C32.3979252,8.81493562 33.0541703,7.47559734 33.7622631,6.23006024 C34.4706523,4.98511681 35.2134091,3.89987285 35.9914224,2.97432836 C36.7688432,2.04878387 37.5815205,1.32212161 38.4285655,0.793154229 C39.2756104,0.264483689 40.1368765,0 41.0117712,0 C41.6087616,0 42.1017601,0.135655495 42.4907668,0.406966485 C42.8794772,0.678277475 43.1852311,1.03656234 43.407436,1.48182107 C43.6293446,1.92737665 43.7854805,2.43140954 43.8761401,2.9951071 C43.9662071,3.55850782 44.0115369,4.13259475 44.0115369,4.71707105 C44.0115369,6.02494438 43.8622153,7.35715852 43.5635719,8.71371347 C43.2649286,10.0705653 42.8622933,11.4345412 42.35537,12.8047507 C41.8481503,14.1752571 41.2618257,15.5493256 40.5952111,16.9266593 C39.9285965,18.3042898 39.2338359,19.671531 38.5121145,21.0280859 C37.7898005,22.3846409 37.0642275,23.7204171 36.3350993,25.0354145 C35.605971,26.350412 34.9218763,27.6339445 34.2831114,28.8860121 C34.2134872,29.0252297 34.140604,29.2065984 34.0644618,29.4289309 C33.9880233,29.6515603 33.9151401,29.8914063 33.8458122,30.1487659 C33.7758917,30.4067191 33.7065638,30.6809985 33.6375321,30.9733851 C33.5676117,31.2654748 33.5125049,31.5507372 33.4707303,31.8291723 L33.4707303,32.1212621 C33.4707303,32.4834058 33.5086533,32.8342697 33.5853881,33.1753379 C33.6615303,33.5164061 33.7551526,33.8221504 33.8665513,34.0934614 C33.9776537,34.3650693 34.0955704,34.5808713 34.2205977,34.7405708 C34.345625,34.9005671 34.4635417,34.9807137 34.5749404,34.9807137 C34.8383273,34.9807137 35.1405259,34.9252048 35.4809438,34.8135932 C35.8210653,34.7022785 36.1819261,34.5526716 36.5641184,34.3650693 C36.9460145,34.1771701 37.3382802,33.961368 37.7412117,33.7179599 C38.1438469,33.4748486 38.5328536,33.2275816 38.9079354,32.9770494 C39.7828301,32.3925731 40.699203,31.7178577 41.6576467,30.9523095 L43.3659577,35.3354365 C42.1296098,36.2259539 40.9077793,37.0191082 39.699281,37.7148992 C39.1713223,38.0069889 38.6264759,38.2961102 38.0641495,38.5810758 C37.501823,38.8663382 36.935645,39.1204326 36.3665042,39.3427651 C35.7967709,39.5653945 35.241555,39.7429043 34.6996714,39.8749977 C34.1580841,40.007388 33.6508644,40.0732863 33.1791976,40.0732863" id="Fill-4"></path>
                <path d="M43.8657705,14.1717544 C43.8657705,13.8517618 43.9350985,13.4902117 44.0740506,13.0865105 C44.2127064,12.6828092 44.4387628,12.3037456 44.7510347,11.9490228 C45.0636029,11.5940032 45.480163,11.2950862 46.0010112,11.0513812 C46.5218594,10.8082699 47.1706977,10.686269 47.948711,10.686269 C48.434599,10.686269 48.8929336,10.741778 49.3237147,10.8530926 C49.7539034,10.9647042 50.1289852,11.1350898 50.4486639,11.3645465 C50.7677501,11.5940032 51.02136,11.8967791 51.2089009,12.2725775 C51.3964418,12.648079 51.4900641,13.0936346 51.4900641,13.6083537 C51.4900641,14.0812185 51.4136256,14.5404287 51.261045,14.9856874 C51.1078717,15.431243 50.865224,15.8278201 50.5319167,16.1754187 C50.1986094,16.5233142 49.778494,16.8050146 49.2715707,17.0208167 C48.764351,17.2366187 48.156991,17.3443713 47.4488982,17.3443713 C46.2264751,17.3443713 45.324027,17.0555468 44.7406652,16.4781947 C44.1573033,15.9008425 43.8657705,15.1317323 43.8657705,14.1717544 L43.8657705,14.1717544 Z M53.177636,35.6275856 C52.6775269,36.0867957 52.0559459,36.577174 51.313189,37.0990173 C50.5698397,37.6208605 49.7678282,38.1008494 48.9071547,38.5392809 C48.0455923,38.9774155 47.1677349,39.3428245 46.2718049,39.6349142 C45.3761711,39.9273008 44.5252746,40.0733456 43.7200041,40.0733456 C42.9976902,40.0733456 42.3900339,39.9724203 41.8970354,39.7705697 C41.4040368,39.5693127 41.0046606,39.2873155 40.699203,38.9254686 C40.3937453,38.5636217 40.1747995,38.121925 40.0432542,37.6000818 C39.9108201,37.0782385 39.8453437,36.5041516 39.8453437,35.8781178 C39.8453437,35.0015518 39.9457803,33.9822061 40.1472461,32.8203777 C40.3484155,31.658846 40.5952111,30.4548664 40.8867439,29.2096261 C41.178573,27.9646827 41.4872896,26.7227077 41.8137826,25.4839979 C42.1399794,24.2458818 42.4282532,23.104832 42.6783077,22.0611456 C42.775189,21.6992986 42.9701368,21.3899922 43.2616696,21.1323358 C43.5532024,20.8749763 43.8829544,20.6662984 44.2512219,20.506302 C44.6188969,20.3466026 45.0010893,20.2278669 45.3969102,20.1515793 C45.7927312,20.0752916 46.1500366,20.0367025 46.4697154,20.0367025 C47.0530772,20.0367025 47.4488982,20.1444551 47.6571782,20.3602572 C47.8654582,20.5760592 47.9697464,20.8645869 47.9697464,21.2264338 C47.9697464,21.532475 47.8998259,21.9744685 47.7611701,22.5515238 C47.622218,23.1291728 47.4488982,23.7831095 47.2406181,24.5136307 C47.0323381,25.2441518 46.809837,26.0301819 46.5740035,26.8720178 C46.3375775,27.7141505 46.1156689,28.5556895 45.9073889,29.3975253 C45.6988126,30.239658 45.5251965,31.0604183 45.3865407,31.8603998 C45.2475886,32.6606782 45.1782606,33.38081 45.1782606,34.0204984 C45.1782606,34.646829 45.2475886,35.1443314 45.3865407,35.5130057 C45.5251965,35.8816799 45.809915,36.066017 46.2406962,36.066017 C46.740509,36.066017 47.2957249,35.8920693 47.9072328,35.5441738 C48.518148,35.1965751 49.1361738,34.7753603 49.7610139,34.28142 C50.3861503,33.7877765 50.9970656,33.2763226 51.5943523,32.7473552 C52.1913427,32.2186847 52.7193015,31.7663018 53.177636,31.3908003 L53.177636,35.6275856 Z" id="Fill-6"></path>
                <path d="M51.6984923,35.7111458 C51.6984923,34.7927254 51.7538954,33.7318223 51.8649978,32.5281395 C51.9761002,31.3250504 52.1150523,30.100292 52.2818541,28.8547549 C52.4483597,27.6098115 52.6359006,26.4096908 52.8441806,25.2543928 C53.0524606,24.0996885 53.2536301,23.1121046 53.4482816,22.2907506 C53.6008623,21.6510623 53.8962466,21.1149707 54.3338421,20.6836634 C54.7711413,20.252653 55.3648727,20.0365541 56.11474,20.0365541 C56.8646074,20.0365541 57.3854556,20.2663076 57.6772847,20.7255178 C57.9688175,21.1844311 58.1145839,21.7971071 58.1145839,22.5620616 C58.1145839,22.7707396 58.0938448,23.0524399 58.0520703,23.4074596 C58.010592,23.7621823 57.9584479,24.1519322 57.8959343,24.5761153 C57.8334207,25.0008922 57.7673517,25.4393236 57.6980238,25.8911128 C57.6283996,26.3431988 57.562627,26.7608515 57.5001134,27.1434772 C57.4375997,27.5263997 57.3854556,27.8603438 57.3439774,28.1453093 C57.3022029,28.4305718 57.2814638,28.622033 57.2814638,28.7190994 L57.6980238,28.7190994 C57.7812766,28.5662273 57.9131181,28.3195539 58.0938448,27.9781889 C58.2739789,27.6374175 58.4822589,27.2446993 58.7186849,26.7991438 C58.9548146,26.353885 59.2084244,25.8842855 59.4792181,25.3900483 C59.7500118,24.8964048 60.003029,24.4232431 60.239455,23.9708603 C60.4755847,23.5190711 60.690679,23.1186351 60.8853305,22.7707396 C61.0796857,22.4231409 61.2254521,22.1654845 61.3226297,21.9986609 C61.7670394,21.2470642 62.2736666,20.7326419 62.8433998,20.4542068 C63.4128369,20.1757716 64.0444912,20.0365541 64.7392518,20.0365541 C65.4334198,20.0365541 65.9853767,20.3289407 66.3951225,20.9131201 C66.804572,21.4975964 67.0098893,22.3047021 67.0098893,23.3344371 C67.0098893,23.4876061 66.9784844,23.7446688 66.9159707,24.1065158 C66.8534571,24.4686595 66.7734634,24.89967 66.676582,25.4007345 C66.5791082,25.9015022 66.4712647,26.4515451 66.3536443,27.0493792 C66.2354313,27.6478069 66.1275879,28.2598893 66.0307065,28.8862199 C65.9332327,29.5122537 65.8535352,30.1314601 65.7910215,30.7438393 C65.7285079,31.3562185 65.6973992,31.9199161 65.6973992,32.4343383 C65.6973992,33.2972498 65.8046501,34.0069922 66.020337,34.5632688 C66.2354313,35.1198422 66.5722939,35.3979805 67.0306285,35.3979805 C67.2389085,35.3979805 67.4785935,35.3353474 67.7493872,35.2103781 C68.0201808,35.085112 68.3117136,34.9215536 68.6242818,34.719703 C68.93685,34.5181492 69.2559362,34.2848336 69.5824292,34.0206468 C69.908626,33.7564599 70.2315637,33.4851489 70.5512425,33.206417 C71.287185,32.5524803 72.0577915,31.8154287 72.8636545,30.9940747 L73.2177009,35.6692915 L72.1760045,36.4624457 C71.6062712,36.893753 71.0267609,37.3253571 70.4365847,37.7566644 C69.8461123,38.1879717 69.2316418,38.5741595 68.5928768,38.9149308 C67.9541119,39.255999 67.2874973,39.5341373 66.593033,39.7496425 C65.8985687,39.9657414 65.1694404,40.0731972 64.4059445,40.0731972 C63.641856,40.0731972 62.9998321,39.5201859 62.4789839,38.4138663 C61.9581356,37.3078436 61.6977115,35.6903671 61.6977115,33.5614366 C61.6977115,32.7264281 61.7531146,31.8258181 61.8645133,30.8584192 C61.9753195,29.8916141 62.1142716,28.8517865 62.2810734,27.7383429 L61.9477661,27.7383429 L56.4898219,38.5913761 C56.2116214,39.1621978 55.8993495,39.5516508 55.5524136,39.7603287 C55.2048852,39.9690067 54.8025462,40.0731972 54.3442116,40.0731972 C53.7744783,40.0731972 53.3161437,39.9514932 52.9692079,39.708085 C52.6219757,39.4649738 52.3547373,39.1375602 52.1671964,38.7270316 C51.9796555,38.3167999 51.8546282,37.8504656 51.7921146,37.3286224 C51.729601,36.8067791 51.6984923,36.2677192 51.6984923,35.7111458" id="Fill-8"></path>
                <path d="M81.7794917,4.9674252 C81.3347856,4.9674252 80.9528895,5.10664276 80.6338033,5.38478105 C80.3141246,5.66351302 80.011926,6.06009014 79.7275037,6.5745124 C79.4427852,7.0892315 79.1577704,7.71556212 78.8733482,8.45291058 C78.5886297,9.19085273 78.2656919,10.0113162 77.9048312,10.9157851 C77.6823301,11.7089393 77.4776053,12.5302933 77.2903607,13.3786596 C77.1028198,14.2273227 76.9324627,15.0727206 76.779882,15.9145565 C76.6267088,16.7566892 76.491312,17.5878388 76.3736915,18.4085991 C76.2554785,19.229953 76.1550419,20.0020317 76.0714929,20.7254287 C75.8632129,22.4370033 75.6967074,24.1203782 75.5716801,25.7764438 C75.8768414,24.8580235 76.2101487,23.8597534 76.571602,22.7813367 C76.9324627,21.7032169 77.2903607,20.6387517 77.6444071,19.5879411 C77.9984536,18.5374273 78.3317609,17.5424224 78.644329,16.6032233 C78.9568972,15.6640242 79.2173213,14.8679016 79.4256014,14.2133713 C79.5224827,13.9076269 79.6614348,13.5247044 79.8421614,13.0654943 C80.0222955,12.6062841 80.2172433,12.1126406 80.4255233,11.5836732 C80.6338033,11.0550026 80.8420834,10.5055534 81.0503634,9.93473166 C81.2586434,9.36450364 81.4494434,8.81505436 81.6233557,8.28608698 C81.7969718,7.7571196 81.9388866,7.26317924 82.0502853,6.80396906 C82.1613878,6.34505573 82.2170871,5.95560275 82.2170871,5.6353133 C82.2170871,5.19005457 82.0710245,4.9674252 81.7794917,4.9674252 L81.7794917,4.9674252 Z M77.6965512,28.4061419 C78.196364,27.7664535 78.7447657,27.0635384 79.3420523,26.2979902 C79.9390428,25.5330357 80.5259599,24.8025145 81.1025075,24.1067236 C81.6784625,23.4109326 82.2064213,22.7917261 82.6857913,22.2491041 C83.164865,21.7064821 83.5429095,21.3378079 83.82111,21.1427846 C84.2512987,20.8370402 84.7792574,20.5761186 85.4040975,20.3600197 C86.0292339,20.1445145 86.7234019,20.0367619 87.4874904,20.0367619 C87.8759045,20.0367619 88.2477274,20.1272978 88.6017738,20.3080729 C88.9561165,20.4888479 89.2651294,20.7462075 89.5288125,21.0801515 C89.7924956,21.4140956 90.0007757,21.8180937 90.1539489,22.2906616 C90.3065296,22.7638232 90.382968,23.2924937 90.382968,23.87697 C90.382968,24.4477917 90.2440159,25.0218787 89.966408,25.598934 C89.6882075,26.1762862 89.3412716,26.7572004 88.9247115,27.3416767 C88.5081515,27.926153 88.0566312,28.5106293 87.5707432,29.0948088 C87.0842626,29.6792851 86.6333349,30.2670266 86.2167748,30.858627 C85.7999185,31.4502275 85.4526863,32.0376722 85.1750784,32.6221485 C84.8968779,33.2066248 84.7585183,33.7911011 84.7585183,34.3752805 C84.7585183,34.876345 84.8799903,35.2346299 85.1229343,35.4501351 C85.365582,35.666234 85.7445154,35.7736898 86.2582531,35.7736898 C86.5361573,35.7736898 86.8380596,35.6798886 87.1645527,35.4919894 C87.4904531,35.3040903 87.827612,35.0571201 88.1748442,34.7510789 C88.52178,34.4453346 88.8725675,34.1039695 89.2269102,33.728468 C89.5809566,33.3526696 89.9210782,32.970044 90.2475712,32.5802941 C90.573768,32.191138 90.8830771,31.8186049 91.1746099,31.4638821 C91.4661427,31.1088624 91.7298258,30.8063833 91.9662518,30.5558511 L93.2162283,35.6694993 C92.7854471,36.295533 92.2403045,36.8767441 91.5808004,37.412242 C90.9210001,37.9477398 90.2057967,38.4140741 89.4351902,38.8106512 C88.6642874,39.2072283 87.865535,39.5171284 87.0395254,39.7394609 C86.2132195,39.9620903 85.4177261,40.073405 84.6542302,40.073405 C83.6543082,40.073405 82.8383719,39.9514041 82.2064213,39.707996 C81.5744706,39.4648847 81.0779168,39.14133 80.7170561,38.7376288 C80.3556028,38.3339275 80.1093998,37.8785763 79.9775583,37.3703876 C79.8454205,36.8624958 79.7796478,36.3373874 79.7796478,35.7947654 C79.7796478,35.4744759 79.8175708,35.0817577 79.8943055,34.6154234 C79.9704477,34.1493859 80.1162141,33.6239806 80.3316047,33.0395043 C80.546699,32.4553249 80.8488977,31.8117776 81.2379043,31.1088624 C81.6263184,30.406541 82.1335381,29.6513822 82.7586745,28.8445733 C83.0084327,28.5940411 83.2377482,28.3678497 83.4460282,28.165999 C83.6543082,27.9647421 83.8347386,27.7833734 83.9876155,27.6233771 C84.1404925,27.4636776 84.2584092,27.3137738 84.341662,27.1748531 C84.425211,27.0359324 84.4666892,26.8898875 84.4666892,26.7364217 C84.4666892,26.4443319 84.4148414,26.2077511 84.3105533,26.0266792 C84.2062651,25.846201 84.0569435,25.7553682 83.8625883,25.7553682 C83.6261623,25.7553682 83.3210009,25.9088341 82.9462154,26.2145784 C82.5711335,26.5206196 82.1613878,27.0567111 81.716978,27.8216656 L75.5924192,38.5912871 C75.2727405,39.1478605 74.9429884,39.5340482 74.6028668,39.7498503 C74.262449,39.9656524 73.8701833,40.073405 73.4260698,40.073405 C72.8287831,40.073405 72.3562274,39.9448736 72.0092916,39.6872173 C71.6620594,39.4298577 71.39808,39.0819622 71.2179459,38.6435308 C71.0372193,38.2053962 70.9225616,37.6975044 70.8739728,37.1198554 C70.8250877,36.5428001 70.8010896,35.9271556 70.8010896,35.2729221 C70.8010896,34.4797679 70.8289393,33.4292541 70.8846386,32.1213808 C70.9397454,30.8135075 71.0229982,29.3765091 71.1343969,27.8112762 C71.2454994,26.2460434 71.394821,24.6074912 71.5823619,22.8959166 C71.7699029,21.1846389 71.9953667,19.5220428 72.2593461,17.9078314 C72.3562274,17.3373066 72.4812547,16.6450777 72.6344279,15.8311447 C72.7870086,15.0169149 72.9781048,14.1439109 73.207124,13.2115391 C73.4364394,12.279761 73.7072331,11.309097 74.0198013,10.3001407 C74.3320732,9.29118437 74.6932301,8.31042779 75.1029759,7.35727725 C75.5124254,6.40442356 75.9743153,5.49639258 76.4883492,4.63348115 C77.0017906,3.77086655 77.5783382,3.01600458 78.2173994,2.36889521 C78.8558681,1.72178585 79.5574429,1.21062882 80.3212352,0.834830447 C81.0847311,0.459032073 81.9181475,0.271429726 82.8211881,0.271429726 C83.529281,0.271429726 84.1126428,0.38600964 84.5709774,0.615763148 C85.029312,0.845219817 85.393728,1.16550927 85.6645216,1.57574098 C85.9353153,1.98626954 86.1261152,2.47664783 86.2375139,3.04717269 C86.3486164,3.61799439 86.4040195,4.23690403 86.4040195,4.90479214 C86.4040195,6.08739934 86.2546978,7.36083932 85.9563507,8.72422157 C85.6574111,10.0881975 85.2793665,11.4551418 84.8210319,12.8256482 C84.3626974,14.1961546 83.8625883,15.5283687 83.3210009,16.8225875 C82.7794136,18.1165094 82.2585654,19.2851651 81.7587525,20.3288516 C81.2586434,21.3725381 80.8174927,22.2523693 80.4358929,22.9692359 C80.0537005,23.6861025 79.8003869,24.155702 79.6753597,24.3780345 L77.1964421,28.0929766 L77.6965512,28.4061419 Z" id="Fill-10"></path>
                <path d="M92.5702935,55.4347127 C93.1536554,55.4347127 93.7056123,55.264327 94.2264605,54.9232588 C94.7473087,54.5821906 95.2263824,54.1333698 95.6636816,53.5770932 C96.1012771,53.0205198 96.500357,52.3873619 96.861514,51.6779163 C97.222671,50.9681739 97.5417572,50.2409179 97.8199577,49.4967422 C98.0975657,48.7522696 98.3333991,48.0253105 98.5280506,47.315568 C98.722702,46.6061224 98.8749864,45.9726677 98.9863852,45.4163911 C98.4447978,45.778238 97.8928409,46.2095453 97.3302182,46.710313 C96.7678917,47.2113775 96.2188975,47.7504374 95.684717,48.3280864 C95.149944,48.9051417 94.6430206,49.5000074 94.1639469,50.1123866 C93.6848732,50.7247658 93.2647578,51.3125073 92.9036008,51.8762048 C92.5421476,52.4396056 92.2577254,52.964714 92.0494453,53.4518271 C91.8411653,53.9389401 91.7368771,54.3420477 91.7368771,54.6623372 C91.7368771,55.1770563 92.0147814,55.4347127 92.5702935,55.4347127 L92.5702935,55.4347127 Z M102.319458,24.0439718 C102.430561,23.571107 102.628471,23.1498922 102.91319,22.781218 C103.197612,22.4128406 103.524401,22.1029405 103.892372,21.8524083 C104.260047,21.601876 104.645499,21.4142737 105.04843,21.2890075 C105.451362,21.1637414 105.832962,21.1011084 106.194119,21.1011084 C106.624604,21.1011084 106.985761,21.1949095 107.27759,21.3828087 C107.569122,21.5707079 107.714889,21.8663597 107.714889,22.2697641 C107.714889,22.3950302 107.69415,22.5410751 107.652375,22.7081955 C107.569122,23.0703393 107.464834,23.5639828 107.340103,24.1900166 C107.215076,24.8163472 107.079679,25.5257928 106.933616,26.3189471 C106.78785,27.1121013 106.638528,27.9503751 106.485948,28.8340652 C106.332775,29.7177554 106.187008,30.5975867 106.048352,31.4741527 C105.70112,33.5336228 105.347074,35.745965 104.985917,38.1114763 C105.402773,37.8748955 105.853701,37.5825089 106.340181,37.2346134 C106.826069,36.8873116 107.367657,36.4206804 107.964943,35.836501 C108.561934,35.2520247 109.228548,34.5182383 109.964787,33.6345481 C110.70073,32.7508579 111.527036,31.6483973 112.443705,30.3262757 L113.443627,34.9596381 C113.193572,35.3912422 112.870931,35.8332357 112.47511,36.2850249 C112.079289,36.7374078 111.641693,37.1897907 111.16262,37.6418767 C110.683546,38.0939628 110.183437,38.5323942 109.662589,38.9565774 C109.142037,39.3813542 108.631558,39.7811965 108.131449,40.1566981 C106.951097,41.0469187 105.680381,41.9098301 104.319302,42.7448387 C104.055619,44.2337839 103.743051,45.68414 103.381894,47.0965007 C103.020441,48.5085646 102.593511,49.8306862 102.100809,51.0622719 C101.60781,52.2935607 101.045187,53.4239242 100.413533,54.4536592 C99.7812861,55.4833943 99.0663789,56.3667876 98.2676265,57.1044329 C97.468874,57.8417814 96.5767955,58.4158683 95.5907984,58.8263969 C94.6045051,59.2366286 93.5148124,59.4420413 92.320239,59.4420413 C91.8479796,59.4420413 91.3377972,59.3930628 90.7890993,59.2959964 C90.2404014,59.1986332 89.7337743,59.0036099 89.2683291,58.7115201 C88.8031803,58.4194304 88.4177289,58.0017777 88.1122713,57.4591557 C87.8071099,56.9165337 87.6539367,56.1931367 87.6539367,55.2886678 C87.6539367,54.6623372 87.8136279,53.9561568 88.1330104,53.1701267 C88.4529854,52.3840966 88.8902846,51.5559154 89.4455005,50.6864735 C90.0007164,49.8167348 90.660813,48.9122659 91.4246052,47.9730668 C92.1881012,47.0338677 93.0182586,46.0979338 93.9138923,45.1658588 C94.8098224,44.2337839 95.7472307,43.3153635 96.7261172,42.4108946 C97.7053,41.5061289 98.6948524,40.6438111 99.6947743,39.822754 L100.257101,37.8817228 C99.5072334,38.5496109 98.725961,39.0892645 97.91358,39.4991993 C97.101199,39.9097279 96.3128161,40.1151406 95.5493202,40.1151406 C94.8827056,40.1151406 94.2332748,39.9794851 93.6013241,39.7081741 C92.9693735,39.4365663 92.4106023,39.0474101 91.924418,38.5392215 C91.4382338,38.0313297 91.0495234,37.4121232 90.7579906,36.681602 C90.4661615,35.9510809 90.3203951,35.1267585 90.3203951,34.2083382 C90.3203951,32.9978281 90.3793535,31.8846813 90.4975665,30.8688977 C90.6151869,29.8534109 90.7858403,28.8860121 91.0080452,27.9678886 C91.2299538,27.0494682 91.507858,26.1625128 91.8411653,25.3067255 C92.1744726,24.4509382 92.5563687,23.5847616 92.9868536,22.7081955 C93.3062361,22.0821618 93.7645707,21.6054381 94.3618574,21.2786182 C94.9588478,20.9517983 95.5419134,20.787943 96.1116467,20.787943 C96.5978309,20.787943 97.014391,20.9099439 97.3616231,21.153352 C97.708559,21.3967602 97.8824714,21.7761206 97.8824714,22.2908397 C97.8824714,22.4440087 97.864695,22.6111291 97.8303273,22.7916074 C97.7956633,22.9726792 97.7364087,23.1674057 97.6531559,23.3760837 C97.4031014,24.0160689 97.1563058,24.7712277 96.9136581,25.6406696 C96.6707141,26.5104083 96.4553235,27.4012226 96.2677826,28.312222 C96.080538,29.2235182 95.9312163,30.1175978 95.8201139,30.9941638 C95.7087152,31.8707298 95.6533121,32.6431053 95.6533121,33.3109934 C95.6533121,33.6588889 95.6773102,33.996395 95.7261953,34.3232149 C95.7747841,34.6500349 95.8615921,34.9424214 95.9866194,35.199781 C96.1116467,35.4574374 96.2784484,35.6661153 96.4867285,35.8258148 C96.6950085,35.9858111 96.9586916,36.0659576 97.2783704,36.0659576 C97.7918118,36.0659576 98.2572569,35.8436251 98.6741132,35.3980695 C99.0906733,34.9528108 99.4518303,34.4170161 99.7572879,33.7909823 C100.062449,33.1649486 100.309245,32.5178392 100.496786,31.8499511 C100.684327,31.182063 100.805799,30.6257864 100.861202,30.1802308 L102.319458,24.0439718 Z" id="Fill-12"></path>
            </g>
        </g>
    </g>
</svg>