<svg width="183" height="120" xmlns="http://www.w3.org/2000/svg"><g fill="#222" fill-rule="evenodd"><path d="M12.429 112.828c6.378.703 16.145 1.266 28.338 1.266 12.194 0 21.96-.563 28.339-1.266-6.378-.703-16.145-1.266-28.339-1.266-12.193 0-20.96.563-27.338 1.266m.046 5.205c-3.621-.36-6.488-.784-8.522-1.261C3.346 116.394 0 115.609 0 112.828c0-2.78 3.346-3.567 4.953-3.944 2.034-.477 4.9-.902 8.522-1.261 7.304-.725 16.997-1.125 27.292-1.125 10.296 0 19.989.4 27.292 1.125 3.622.36 6.49.784 8.523 1.261 1.607.377 4.953 1.163 4.953 3.944 0 2.78-3.346 3.566-4.953 3.944-2.034.477-4.901.9-8.523 1.26-7.303.726-16.996 1.126-27.292 1.126-10.296 0-19.988-.4-27.292-1.125z"/><path d="M40.767 108.55c12.194 0 21.96-.563 28.339-1.266-6.378-.703-16.145-1.266-28.339-1.266-12.193 0-21.96.563-28.338 1.266 6.378.703 16.145 1.266 28.338 1.266zm-27.292 3.94c-3.621-.36-6.488-.784-8.522-1.262C3.346 110.85 0 110.065 0 107.284c0-2.78 3.346-3.566 4.953-3.944 2.034-.477 4.9-.9 8.522-1.261 7.304-.725 16.997-1.125 27.292-1.125 10.296 0 19.989.4 27.292 1.125 3.622.36 6.49.784 8.523 1.261 1.608.378 4.953 1.163 4.953 3.944 0 2.78-3.345 3.566-4.953 3.944-2.033.478-4.901.902-8.523 1.261-7.303.725-16.996 1.125-27.292 1.125-10.296 0-19.988-.4-27.292-1.125z"/><path d="M12.429 101.933c6.378.704 16.145 1.266 28.338 1.266 12.194 0 21.96-.562 28.339-1.266-6.378-.703-16.145-1.265-28.339-1.265-12.193 0-21.96.562-28.338 1.265m28.338 6.33c-10.296 0-19.988-.4-27.292-1.124-3.621-.36-6.488-.785-8.522-1.262C3.346 105.5 0 104.714 0 101.933c0-2.78 3.346-3.566 4.953-3.943 2.034-.478 4.9-.902 8.522-1.262 7.304-.724 16.997-1.124 27.292-1.124 10.296 0 19.989.4 27.292 1.124 3.622.36 6.49.784 8.523 1.262 1.607.377 4.953 1.163 4.953 3.943 0 2.781-3.346 3.567-4.953 3.944-2.034.477-4.901.901-8.523 1.262-7.303.724-16.996 1.124-27.292 1.124"/><path d="M12.429 96.39c6.378.703 16.145 1.266 28.338 1.266 12.194 0 21.96-.563 28.339-1.266-6.378-.703-16.145-1.266-28.339-1.266-12.193 0-21.96.563-28.338 1.266m28.338 6.33c-10.296 0-19.988-.4-27.292-1.125-3.621-.36-6.488-.784-8.522-1.261C3.346 99.956 0 99.17 0 96.39c0-2.781 3.346-3.566 4.953-3.944 2.034-.477 4.9-.901 8.522-1.261 7.304-.725 16.997-1.125 27.292-1.125 10.296 0 19.989.4 27.292 1.125 3.622.36 6.49.784 8.523 1.261 1.608.378 4.953 1.163 4.953 3.944 0 2.78-3.345 3.566-4.953 3.944-2.033.477-4.901.901-8.523 1.26-7.303.726-16.996 1.126-27.292 1.126"/><path d="M12.429 91.065c6.378.703 16.145 1.266 28.338 1.266 12.194 0 21.96-.563 28.339-1.266-6.378-.703-16.145-1.265-28.339-1.265-12.193 0-21.96.562-28.338 1.265m28.338 6.33c-10.296 0-19.988-.4-27.292-1.125-3.621-.36-6.488-.784-8.522-1.262C3.346 94.631 0 93.845 0 91.065c0-2.781 3.346-3.566 4.953-3.943 2.034-.478 4.9-.902 8.522-1.262 7.304-.725 16.997-1.125 27.292-1.125 10.296 0 19.989.4 27.292 1.125 3.622.36 6.49.784 8.523 1.262 1.607.377 4.953 1.162 4.953 3.943 0 2.78-3.346 3.566-4.953 3.943-2.034.478-4.901.902-8.523 1.262-7.303.725-16.996 1.125-27.292 1.125"/><path d="M13.937 75.663c6.117 1.948 15.586 4.428 27.552 6.835 10.735 2.16 20.977 3.733 28.047 4.352-6.116-1.948-15.587-4.427-27.553-6.834-10.734-2.16-20.975-3.734-28.046-4.353m61.117 16.54c-6.78 0-20.022-1.816-34.556-4.74-10.096-2.03-19.52-4.334-26.54-6.486-3.482-1.067-6.21-2.049-8.11-2.918-1.502-.687-4.63-2.117-4.085-4.844.58-2.904 4.383-2.904 6.655-2.904 6.78 0 20.022 1.815 34.556 4.74 10.096 2.03 19.522 4.334 26.54 6.485 3.481 1.067 6.21 2.049 8.11 2.918 1.503.687 4.63 2.117 4.086 4.843-.58 2.906-4.383 2.906-6.656 2.906"/><path d="M18.311 61.224c5.63 3.088 14.447 7.341 25.721 12.002 11.07 4.577 20.388 7.844 26.682 9.661-5.63-3.088-14.447-7.341-25.721-12.002-11.07-4.577-20.388-7.844-26.682-9.661m60.252 28.403c-5.598 0-22.34-5.885-36.45-11.718-9.522-3.937-18.333-8.011-24.81-11.474-3.213-1.717-5.704-3.205-7.402-4.423-1.345-.964-4.14-2.97-3.085-5.54.371-.907 1.306-1.988 3.646-1.988 5.598 0 22.342 5.885 36.45 11.718 9.522 3.937 18.333 8.011 24.812 11.474 3.212 1.717 5.703 3.205 7.401 4.423 1.344.964 4.139 2.97 3.084 5.54-.37.907-1.305 1.988-3.646 1.988"/><path d="M25.555 47.566c4.916 4.139 12.73 10.049 22.874 16.843 10.143 6.794 18.578 11.768 24.273 14.737-4.917-4.138-12.73-10.049-22.874-16.842-10.143-6.795-18.579-11.77-24.273-14.738m54.733 39.869c-6.389 0-31.783-16.888-34.658-18.814-8.565-5.737-16.407-11.47-22.083-16.142-2.813-2.317-4.963-4.268-6.39-5.798-1.13-1.21-3.479-3.727-1.942-6.04.338-.51 1.145-1.363 2.754-1.363 6.388 0 31.783 16.888 34.658 18.812 8.565 5.738 16.407 11.47 22.081 16.143 2.814 2.318 4.965 4.269 6.393 5.799 1.129 1.21 3.478 3.726 1.94 6.04-.337.509-1.145 1.363-2.753 1.363"/><path d="M35.295 35.643c4.014 5.024 10.523 12.356 19.146 21.012 8.622 8.658 15.924 15.193 20.93 19.223-4.015-5.024-10.525-12.356-19.147-21.013-8.622-8.657-15.924-15.192-20.929-19.222m46.683 49.936c-1.032 0-2.952 0-12.03-7.607-5.494-4.605-12.268-10.903-19.073-17.736-7.28-7.31-13.853-14.473-18.507-20.17-2.307-2.826-4.035-5.161-5.138-6.943-.87-1.408-2.683-4.339-.724-6.305.562-.565 1.337-.876 2.182-.876 1.031 0 2.951 0 12.029 7.607 5.494 4.605 12.268 10.903 19.073 17.736 7.281 7.31 13.853 14.473 18.506 20.17 2.308 2.827 4.036 5.162 5.138 6.943.871 1.408 2.684 4.34.725 6.305-.562.565-1.337.876-2.181.876"/><path d="M47.214 25.834c2.953 5.72 7.901 14.191 14.662 24.38 6.76 10.189 12.642 18.038 16.76 22.977-2.952-5.719-7.9-14.191-14.661-24.38-6.76-10.189-12.641-18.038-16.76-22.977m36.658 58.238c-1.375 0-2.765-.848-4.958-3.026-1.553-1.543-3.479-3.738-5.725-6.524-4.543-5.637-10.051-13.273-15.51-21.5-5.71-8.603-10.752-16.923-14.2-23.428-1.71-3.226-2.948-5.857-3.68-7.82-.578-1.553-1.782-4.784.523-6.326a2.97 2.97 0 0 1 1.655-.494c1.376 0 2.765.848 4.958 3.025 1.553 1.543 3.48 3.739 5.725 6.525 4.543 5.636 10.052 13.272 15.511 21.5 5.709 8.603 10.751 16.923 14.199 23.428 1.71 3.225 2.947 5.856 3.68 7.82.577 1.553 1.782 4.783-.523 6.325a2.96 2.96 0 0 1-1.655.495"/><path d="M60.993 18.499c1.761 6.194 4.934 15.484 9.543 26.819 4.608 11.335 8.817 20.2 11.875 25.863-1.761-6.194-4.933-15.485-9.54-26.82-4.61-11.334-8.819-20.2-11.878-25.862M86 82.952c-1.73 0-3.604-.846-9.032-11.25-3.374-6.466-7.317-15.157-11.103-24.47-3.892-9.571-7.186-18.732-9.278-25.794-1.037-3.503-1.73-6.329-2.057-8.399-.26-1.637-.8-5.044 1.765-6.095a2.912 2.912 0 0 1 1.108-.217c1.73 0 3.604.846 9.032 11.25 3.373 6.467 7.316 15.157 11.104 24.47 3.89 9.572 7.185 18.732 9.276 25.795 1.037 3.503 1.73 6.329 2.058 8.398.26 1.637.8 5.044-1.765 6.095a2.892 2.892 0 0 1-1.108.217"/><path d="M75.767 14.093c.515 6.421 1.807 16.155 4.108 28.18 2.3 12.022 4.694 21.545 6.585 27.701-.515-6.421-1.808-16.157-4.108-28.179-2.302-12.024-4.695-21.547-6.585-27.702m12.49 68.189c-2.236 0-3.412-2.274-4.338-4.407-.846-1.95-1.795-4.704-2.818-8.19-2.066-7.039-4.26-16.434-6.179-26.458-1.942-10.15-3.38-19.783-4.049-27.12-.332-3.64-.457-6.546-.374-8.641.065-1.657.203-5.104 2.922-5.628.181-.035.366-.052.55-.052 2.235 0 3.41 2.274 4.337 4.406.846 1.949 1.795 4.704 2.818 8.191 2.067 7.038 4.26 16.433 6.178 26.456 1.943 10.152 3.381 19.784 4.05 27.122.332 3.639.457 6.546.374 8.64-.066 1.658-.203 5.104-2.923 5.628-.18.035-.365.053-.549.053"/><path d="M90.496 12.685c-.7 6.403-1.26 16.21-1.26 28.452 0 12.243.56 22.049 1.26 28.452.7-6.403 1.26-16.21 1.26-28.452s-.56-22.049-1.26-28.452m0 69.383c-2.77 0-3.552-3.36-3.928-4.973-.475-2.042-.898-4.92-1.256-8.556-.722-7.333-1.12-17.065-1.12-27.402s.398-20.07 1.12-27.402c.358-3.636.78-6.515 1.256-8.556.376-1.614 1.158-4.973 3.928-4.974 2.77 0 3.552 3.36 3.928 4.974.475 2.041.898 4.92 1.256 8.556.722 7.333 1.12 17.065 1.12 27.402s-.398 20.069-1.12 27.402c-.358 3.636-.78 6.514-1.256 8.556-.376 1.614-1.158 4.973-3.928 4.973"/><path d="M105.832 14.213c-1.94 6.14-4.407 15.644-6.803 27.648-2.396 12.006-3.766 21.73-4.33 28.146 1.939-6.14 4.407-15.643 6.803-27.648 2.395-12.005 3.764-21.73 4.33-28.146M92.83 82.3c-.192 0-.385-.019-.573-.057-2.716-.546-2.825-3.994-2.879-5.65-.065-2.096.083-5.002.444-8.638.726-7.332 2.24-16.953 4.262-27.089 1.997-10.002 4.263-19.376 6.384-26.395 1.052-3.478 2.02-6.226 2.883-8.17.94-2.12 2.128-4.382 4.352-4.382.192 0 .384.02.573.057 2.714.546 2.825 3.994 2.877 5.651.067 2.096-.082 5.002-.443 8.637-.725 7.333-2.24 16.953-4.262 27.09-1.996 10-4.264 19.375-6.384 26.395-1.05 3.477-2.02 6.226-2.882 8.169-.94 2.12-2.129 4.382-4.352 4.382"/><path d="M108.263 44.415c-4.642 11.322-7.842 20.602-9.623 26.791 3.076-5.653 7.313-14.506 11.955-25.826 4.643-11.321 7.843-20.602 9.624-26.792-3.076 5.654-7.312 14.506-11.956 25.827zm-14.355 38.33c-2.561-1.058-2.01-4.463-1.746-6.1.334-2.069 1.035-4.892 2.083-8.392 2.113-7.056 5.435-16.207 9.355-25.765 3.814-9.3 7.783-17.978 11.175-24.433 5.456-10.382 7.33-11.226 9.06-11.226.386 0 .762.074 1.117.22 2.56 1.059 2.01 4.463 1.745 6.1-.334 2.07-1.035 4.893-2.083 8.392-2.112 7.057-5.435 16.208-9.355 25.766-3.814 9.3-7.783 17.977-11.175 24.432-5.456 10.382-7.33 11.227-9.059 11.227-.387 0-.763-.074-1.117-.22z"/><path d="M133.821 25.863c-4.122 4.936-10.008 12.781-16.776 22.965-6.768 10.186-11.721 18.655-14.678 24.372 4.122-4.936 10.008-12.781 16.776-22.966 6.767-10.185 11.722-18.654 14.678-24.371M97.125 84.077a2.964 2.964 0 0 1-1.656-.497c-2.303-1.542-1.098-4.773-.519-6.325.734-1.963 1.973-4.594 3.685-7.818 3.453-6.502 8.5-14.819 14.214-23.419 5.466-8.223 10.979-15.854 15.525-21.487 2.248-2.785 4.175-4.98 5.73-6.521 2.193-2.176 3.583-3.024 4.959-3.024.598 0 1.171.17 1.655.497 2.305 1.543 1.099 4.772.52 6.325-.733 1.963-1.973 4.594-3.685 7.818-3.452 6.502-8.5 14.819-14.215 23.419-5.464 8.223-10.977 15.854-15.524 21.487-2.248 2.785-4.175 4.98-5.73 6.521-2.192 2.176-3.583 3.024-4.959 3.024"/><path d="M145.698 35.642c-5.005 4.03-12.308 10.566-20.93 19.223-8.623 8.657-15.133 15.989-19.147 21.014 5.005-4.03 12.308-10.566 20.93-19.224 8.622-8.656 15.132-15.988 19.147-21.013M99.014 85.58c-.844 0-1.62-.311-2.182-.876-1.958-1.966-.146-4.897.726-6.305 1.101-1.781 2.83-4.116 5.138-6.942 4.653-5.698 11.225-12.862 18.506-20.17 6.805-6.834 13.58-13.133 19.072-17.736 9.079-7.608 10.999-7.608 12.03-7.608.844 0 1.62.311 2.182.876 1.959 1.966.146 4.897-.725 6.305-1.101 1.782-2.83 4.117-5.138 6.942-4.653 5.698-11.225 12.861-18.506 20.17-6.805 6.834-13.58 13.132-19.072 17.736-9.079 7.608-10.999 7.608-12.03 7.608"/><path d="M155.47 47.607c-5.696 2.965-14.135 7.934-24.287 14.723-10.148 6.789-17.965 12.693-22.884 16.828 5.696-2.964 14.134-7.932 24.282-14.72 10.15-6.789 17.968-12.695 22.888-16.83M100.71 87.44c-1.61 0-2.418-.855-2.756-1.364-1.536-2.314.815-4.83 1.944-6.04 1.43-1.528 3.581-3.477 6.396-5.793 5.678-4.67 13.524-10.396 22.093-16.128 2.875-1.923 28.276-18.789 34.667-18.789 1.611 0 2.418.855 2.756 1.364 1.536 2.314-.815 4.83-1.945 6.04-1.428 1.528-3.58 3.478-6.395 5.793-5.678 4.669-13.524 10.397-22.093 16.128-2.874 1.922-28.276 18.79-34.667 18.79"/><path d="M162.767 61.447c-6.303 1.799-15.632 5.038-26.707 9.577-11.286 4.626-20.113 8.851-25.754 11.921 6.303-1.799 15.631-5.038 26.707-9.577 11.287-4.625 20.113-8.85 25.754-11.921M102.46 89.662c-2.36 0-3.296-1.086-3.668-1.998-1.046-2.573 1.756-4.57 3.102-5.53 1.703-1.213 4.197-2.694 7.415-4.401 6.489-3.443 15.313-7.49 24.845-11.397 14.097-5.778 30.838-11.607 36.46-11.607 2.358 0 3.295 1.086 3.666 1.998 1.047 2.575-1.755 4.572-3.1 5.53-1.703 1.214-4.198 2.695-7.416 4.402-6.49 3.443-15.312 7.49-24.845 11.397-14.096 5.778-30.837 11.606-36.459 11.606"/><path d="M139.093 80.402c-11.996 2.314-21.493 4.72-27.623 6.621 7.06-.553 17.21-2.034 28.1-4.135 11.997-2.314 21.494-4.722 27.624-6.622-7.061.554-17.21 2.035-28.1 4.136zm-39.797 8.966c-.523-2.732 2.615-4.136 4.123-4.81 1.908-.856 4.644-1.815 8.132-2.854 7.037-2.096 16.48-4.325 26.59-6.275 14.282-2.755 27.418-4.467 34.279-4.467 2.387 0 6.38 0 6.946 2.96.523 2.731-2.615 4.136-4.123 4.811-1.906.854-4.642 1.814-8.131 2.854-7.036 2.095-16.48 4.324-26.59 6.274-14.283 2.754-27.418 4.466-34.28 4.466-2.386 0-6.38 0-6.946-2.96z"/><path d="M111.886 91.065c6.378.703 16.145 1.266 28.339 1.266 12.193 0 21.96-.563 28.338-1.266-6.378-.703-16.145-1.265-28.338-1.265-12.194 0-21.961.562-28.339 1.265m28.339 6.33c-10.296 0-19.99-.4-27.292-1.125-3.622-.36-6.49-.784-8.523-1.262-1.607-.377-4.953-1.163-4.953-3.943 0-2.781 3.346-3.566 4.953-3.943 2.033-.478 4.9-.902 8.523-1.262 7.303-.725 16.996-1.125 27.292-1.125 10.295 0 19.988.4 27.292 1.125 3.621.36 6.488.784 8.522 1.262 1.607.377 4.953 1.162 4.953 3.943 0 2.78-3.346 3.566-4.953 3.943-2.034.478-4.9.902-8.522 1.262-7.304.725-16.996 1.125-27.292 1.125"/><path d="M112.028 96.39c6.378.703 16.145 1.266 28.339 1.266 12.193 0 21.96-.563 28.338-1.266-6.378-.703-16.145-1.266-28.338-1.266-12.194 0-21.96.563-28.339 1.266m28.339 6.33c-10.296 0-19.988-.4-27.292-1.125-3.622-.36-6.489-.784-8.522-1.261-1.608-.378-4.954-1.164-4.954-3.944 0-2.781 3.346-3.566 4.954-3.944 2.033-.477 4.9-.901 8.522-1.261 7.304-.725 16.997-1.125 27.292-1.125 10.296 0 19.988.4 27.292 1.125 3.622.36 6.49.784 8.523 1.261 1.607.378 4.952 1.163 4.952 3.944 0 2.78-3.345 3.566-4.952 3.944-2.034.477-4.901.901-8.523 1.26-7.303.726-16.996 1.126-27.292 1.126"/><path d="M112.028 101.933c6.378.704 16.145 1.266 28.339 1.266 12.193 0 21.96-.562 28.338-1.266-6.378-.703-16.145-1.265-28.338-1.265-12.194 0-21.96.562-28.339 1.265m28.339 6.33c-10.296 0-19.989-.4-27.292-1.124-3.622-.36-6.489-.785-8.522-1.262-1.608-.377-4.954-1.163-4.954-3.944 0-2.78 3.346-3.566 4.954-3.943 2.033-.478 4.9-.902 8.522-1.262 7.303-.724 16.996-1.124 27.292-1.124 10.296 0 19.988.4 27.292 1.124 3.621.36 6.489.784 8.522 1.262 1.608.377 4.953 1.163 4.953 3.943 0 2.781-3.345 3.567-4.953 3.944-2.033.477-4.9.901-8.522 1.262-7.303.724-16.996 1.124-27.292 1.124"/><path d="M113.028 107.284c6.378.703 16.145 1.266 28.339 1.266 12.193 0 21.96-.563 28.338-1.266-6.378-.703-16.145-1.266-28.338-1.266-12.194 0-21.96.563-28.339 1.266m28.339 6.33c-10.296 0-19.988-.4-27.292-1.125-3.622-.36-6.489-.783-8.522-1.261-1.608-.378-4.954-1.163-4.954-3.944 0-2.78 3.346-3.566 4.954-3.944 2.033-.477 4.9-.9 8.522-1.261 7.304-.725 16.997-1.125 27.292-1.125 10.296 0 19.988.4 27.292 1.125 3.622.36 6.49.784 8.523 1.261 1.607.378 4.952 1.163 4.952 3.944 0 2.78-3.345 3.566-4.952 3.944-2.034.478-4.901.902-8.523 1.261-7.303.725-16.996 1.125-27.292 1.125"/><path d="M140.367 114.094c12.193 0 21.96-.563 28.338-1.266-6.378-.703-16.145-1.266-28.338-1.266-12.194 0-21.96.563-28.339 1.266 6.378.703 16.145 1.266 28.339 1.266zm-27.292 3.939c-3.622-.36-6.489-.784-8.522-1.261-1.608-.378-4.954-1.163-4.954-3.944 0-2.78 3.346-3.567 4.954-3.944 2.033-.477 4.9-.902 8.522-1.261 7.303-.725 16.996-1.125 27.292-1.125 10.296 0 19.988.4 27.292 1.125 3.621.36 6.489.784 8.522 1.261 1.608.377 4.953 1.163 4.953 3.944 0 2.78-3.345 3.566-4.953 3.944-2.033.477-4.9.9-8.522 1.26-7.303.726-16.996 1.126-27.292 1.126-10.296 0-19.989-.4-27.292-1.125z"/></g></svg>